<svg width="425" height="105" viewBox="0 0 425 105" fill="none" xmlns="http://www.w3.org/2000/svg">
<path d="M0 7.54331C0 3.37725 3.37557 0 7.53955 0H43.7294C72.4609 0 95.7523 23.3031 95.7523 52.0489C95.7523 80.7946 72.4609 104.098 43.7294 104.098H7.53955C3.37558 104.098 0 100.72 0 96.5544V7.54331Z" fill="url(#paint0_linear_20_271)"/>
<path d="M43.9232 27.6716L65.2248 39.9701V64.567L43.9232 76.8655L22.6216 64.567V39.9701L43.9232 27.6716Z" fill="url(#paint1_linear_20_271)"/>
<path d="M43.9232 27.6716L65.2248 39.9701V64.567L43.9232 76.8655L22.6216 64.567V39.9701L43.9232 27.6716Z" fill="white"/>
<path d="M22.6358 64.5295V40.083L43.9607 52.3063L43.9231 76.8656L22.6358 64.5295Z" fill="url(#paint2_linear_20_271)"/>
<path d="M22.6358 64.5295V40.083L43.9607 52.3063L43.9231 76.8656L22.6358 64.5295Z" fill="white" fill-opacity="0.2"/>
<path d="M107.182 1.75935H128.535V102.338H107.182V1.75935Z" fill="#002FA7"/>
<path d="M176.885 61.7255L138.302 1.75935H162.6L187.782 42.812H188.518L213.406 1.75935H236.526L198.238 61.7255V102.338H176.885V61.7255Z" fill="#002FA7"/>
<path d="M285.122 104.098C277.366 104.098 270.248 102.925 263.769 100.579C257.387 98.1353 252.282 94.5676 248.453 89.8759C244.624 85.1841 242.71 79.515 242.71 72.8683L242.857 69.6428H264.505L264.358 71.9886C264.358 76.2894 266.272 79.7104 270.101 82.2518C273.93 84.7932 279.28 86.0638 286.152 86.0638C293.417 86.0638 298.67 85.1353 301.91 83.2781C305.149 81.3232 306.769 78.733 306.769 75.5074C306.769 72.6729 305.689 70.327 303.529 68.4699C301.468 66.515 298.817 64.9999 295.577 63.9247C292.436 62.7518 288.067 61.3834 282.471 59.8195C274.519 57.5714 268.088 55.421 263.179 53.3684C258.271 51.3157 254.049 48.2856 250.515 44.2781C246.981 40.1729 245.213 34.7969 245.213 28.1503C245.213 18.9624 248.944 11.9736 256.405 7.18416C263.867 2.39469 273.782 -4.57764e-05 286.152 -4.57764e-05C297.835 -4.57764e-05 307.358 2.49243 314.721 7.47739C322.183 12.3646 325.913 19.7443 325.913 29.6165V31.3759H304.708V30.0563C304.708 26.342 302.99 23.4097 299.553 21.2593C296.215 19.109 291.65 18.0338 285.858 18.0338C279.673 18.0338 274.911 18.8646 271.573 20.5263C268.334 22.1879 266.714 24.4849 266.714 27.4172C266.714 29.6654 267.696 31.6202 269.659 33.2819C271.623 34.8458 274.077 36.1654 277.022 37.2405C279.967 38.218 284.14 39.4398 289.54 40.906C297.59 43.0563 304.168 45.2067 309.273 47.3571C314.476 49.4097 318.943 52.4887 322.674 56.5939C326.404 60.6992 328.27 66.0751 328.27 72.7217C328.27 83.4736 324.392 91.3909 316.636 96.4736C308.978 101.556 298.473 104.098 285.122 104.098Z" fill="#002FA7"/>
<path d="M344.615 1.75935H423.989V19.7932H365.968V41.9323H417.51V59.9661H365.968V84.3044H424.873V102.338H344.615V1.75935Z" fill="#002FA7"/>
<defs>
<linearGradient id="paint0_linear_20_271" x1="0" y1="0" x2="96.5038" y2="0.70137" gradientUnits="userSpaceOnUse">
<stop stop-color="#613BFB"/>
<stop offset="1" stop-color="#0430AB"/>
</linearGradient>
<linearGradient id="paint1_linear_20_271" x1="19.3263" y1="27.6716" x2="68.9057" y2="28.0634" gradientUnits="userSpaceOnUse">
<stop stop-color="#613BFB"/>
<stop offset="1" stop-color="#458FFF"/>
</linearGradient>
<linearGradient id="paint2_linear_20_271" x1="22.6358" y1="40.083" x2="44.1287" y2="40.1815" gradientUnits="userSpaceOnUse">
<stop stop-color="#613BFB"/>
<stop offset="1" stop-color="#002FA7"/>
</linearGradient>
</defs>
</svg>
